<svg fill="none" viewBox="0 0 200 200" xmlns="http://www.w3.org/2000/svg">
  <path d="M120 160c20 0 40-15 45-35 5-20-5-40-25-45-15-5-25-15-25-30s-15-25-35-20c-20 5-45 35-45 65s25 65 65 65z" fill="#0EA5E9"/>
  <circle cx="130" cy="110" r="12" fill="#fff"/>
  <circle cx="135" cy="110" r="5" fill="#000"/>
  <path d="M165 110l25-10-15 25z" fill="#F59E0B"/>
  <path d="M55 120c0-15 15-25 30-20s20 15 20 25c0-15-10-30-25-35-20-5-25 20-25 30z" fill="#bae6fd"/>
  <path d="M90 170c-25 0-45-15-55-35 5 10 15 20 30 20 15 0 25-10 30-20 5 15 5 35-5 35z" fill="#0284c7"/>
</svg>
